<?xml version="1.0" standalone="no"?>
<!DOCTYPE svg PUBLIC "-//W3C//DTD SVG 20010904//EN"
 "http://www.w3.org/TR/2001/REC-SVG-20010904/DTD/svg10.dtd">
<svg version="1.0" xmlns="http://www.w3.org/2000/svg"
 width="700.000000pt" height="700.000000pt" viewBox="0 0 700.000000 700.000000"
 preserveAspectRatio="xMidYMid meet">
<metadata>
Created by potrace 1.14, written by Peter Selinger 2001-2017
</metadata>
<g transform="translate(0.000000,700.000000) scale(0.100000,-0.100000)"
fill="#000000" stroke="none">
<path d="M1813 6080 c-34 -14 -39 -49 -15 -110 10 -25 79 -130 92 -140 4 -3
11 -12 16 -21 5 -9 43 -54 84 -100 224 -249 338 -326 421 -283 78 40 111 226
59 336 -35 73 -110 142 -200 185 -255 119 -393 160 -457 133z"/>
<path d="M4780 5966 c-19 -6 -63 -29 -97 -49 -35 -20 -63 -35 -63 -32 0 2 -19
-5 -43 -15 -57 -25 -233 -73 -317 -86 -19 -3 -37 -7 -40 -9 -3 -2 -46 -11 -95
-19 -180 -32 -199 -35 -318 -51 -39 -5 -87 -12 -147 -20 -14 -2 -56 -7 -95
-10 -38 -4 -83 -9 -100 -11 -16 -3 -120 -6 -229 -9 -221 -5 -251 -9 -261 -33
-9 -24 64 -88 140 -123 159 -72 335 -74 630 -5 140 33 306 64 435 81 25 3 56
8 70 10 14 2 54 7 90 11 36 3 79 8 95 10 17 2 84 5 150 5 129 2 213 -15 252
-48 21 -19 57 -120 68 -190 3 -21 8 -50 10 -63 9 -46 15 -84 29 -205 8 -65 17
-157 22 -205 2 -25 6 -74 9 -110 4 -36 8 -96 10 -135 3 -38 7 -106 10 -150 27
-419 38 -829 38 -1385 0 -635 -10 -928 -37 -1100 -15 -91 -65 -189 -109 -215
-46 -27 -168 -25 -266 4 -221 67 -230 45 -54 -134 54 -55 112 -118 128 -140
17 -22 38 -49 48 -61 43 -51 247 -365 247 -380 0 -13 60 -69 90 -84 31 -16 39
-16 68 -5 88 38 176 313 218 680 22 194 21 521 -1 935 -2 36 -6 128 -10 205
-3 77 -7 172 -10 210 -2 39 -7 126 -10 195 -4 69 -8 157 -11 195 -2 39 -6 124
-9 190 -3 66 -8 154 -10 195 -2 41 -7 143 -11 225 -3 83 -7 179 -9 215 -25
564 -24 879 4 1000 4 19 9 40 10 45 10 49 14 66 28 105 9 25 32 68 53 95 52
71 58 85 54 128 -6 72 -87 153 -239 240 -76 44 -186 93 -230 104 -48 11 -153
11 -185 -1z"/>
<path d="M1290 5434 c-18 -21 -5 -73 39 -156 39 -74 73 -192 86 -303 24 -192
28 -307 28 -700 0 -509 -15 -959 -38 -1185 -3 -30 -8 -80 -11 -110 -2 -30 -6
-66 -8 -80 -3 -14 -9 -56 -15 -95 -16 -104 -19 -127 -25 -157 -4 -16 -8 -39
-10 -53 -3 -14 -7 -33 -10 -43 -3 -9 -8 -28 -10 -42 -11 -53 -28 -118 -56
-213 -37 -122 -44 -170 -43 -273 1 -115 34 -239 99 -371 54 -110 97 -163 133
-163 23 0 67 71 90 149 21 67 25 85 42 176 16 86 30 190 34 255 1 25 6 90 9
145 16 236 27 562 41 1245 23 1096 39 1460 71 1600 11 47 11 155 1 180 -38 89
-157 161 -307 185 -19 3 -46 8 -60 10 -14 3 -35 7 -47 9 -12 3 -27 -2 -33 -10z"/>
<path d="M3541 5286 c-12 -14 -17 -64 -25 -231 -3 -69 -12 -114 -40 -192 -46
-134 -111 -286 -194 -452 -70 -141 -68 -139 -147 -156 -11 -3 -31 -7 -45 -10
-14 -4 -34 -8 -45 -10 -11 -3 -31 -7 -45 -10 -14 -4 -36 -8 -50 -11 -14 -2
-31 -7 -38 -9 -52 -18 -197 -23 -404 -12 -108 5 -136 2 -173 -20 -24 -14 -16
-35 49 -123 84 -114 169 -301 257 -563 24 -72 40 -105 61 -122 27 -23 31 -24
58 -10 16 8 38 28 49 44 22 30 21 30 176 47 28 2 61 7 75 9 14 3 55 7 92 11
67 6 67 6 74 -21 13 -52 7 -231 -11 -324 -4 -21 -15 -121 -21 -186 -5 -58 -5
-276 0 -301 2 -12 7 -38 10 -58 30 -189 245 -323 581 -361 57 -7 239 -7 309 0
213 20 431 107 502 201 37 48 38 99 2 215 -14 47 -29 107 -32 135 -3 27 -8 60
-10 74 -3 14 -7 57 -10 95 -13 159 -18 201 -30 230 l-12 30 -17 -26 c-14 -21
-47 -134 -60 -205 -2 -10 -9 -37 -15 -59 -6 -22 -12 -44 -13 -50 -1 -5 -22
-49 -45 -96 -67 -133 -145 -200 -274 -237 -41 -12 -93 -24 -115 -27 -51 -7
-172 -7 -205 0 -14 3 -41 8 -60 11 -86 15 -217 81 -267 135 -39 42 -66 118
-68 189 -2 79 18 147 75 263 68 136 62 222 -23 350 -21 31 -33 57 -27 57 5 0
54 7 109 15 54 8 120 17 147 20 27 3 56 8 64 10 8 2 42 7 75 11 74 8 101 18
114 41 13 26 -10 72 -65 128 -24 24 -44 46 -44 49 0 11 74 122 122 183 62 80
99 118 170 170 62 46 73 67 59 105 -15 41 -202 147 -285 162 -14 3 -29 7 -34
10 -5 3 -34 8 -65 11 -49 5 -65 2 -134 -28 -79 -34 -134 -55 -169 -61 -11 -2
-39 -9 -63 -16 -49 -13 -61 -8 -37 15 9 9 29 33 44 53 15 21 32 42 38 47 5 6
28 32 50 60 21 27 46 57 54 65 8 9 42 47 75 85 103 119 222 232 305 291 44 31
84 64 89 73 33 60 -31 130 -190 209 -184 90 -252 110 -278 78z m26 -1138 c20
-22 24 -116 10 -236 -4 -35 -10 -94 -13 -130 -3 -37 -8 -70 -12 -73 -6 -6
-143 -40 -212 -54 -8 -2 -62 -13 -120 -25 -58 -12 -112 -23 -120 -25 -8 -2
-49 -10 -90 -18 -41 -9 -88 -19 -105 -22 -67 -14 -93 -16 -98 -8 -10 16 -38
310 -41 422 l-1 65 80 18 c44 10 96 20 115 24 19 3 51 9 70 14 19 5 52 11 72
14 21 3 59 11 85 17 27 5 66 12 88 15 22 3 46 7 53 10 8 2 44 7 80 10 37 4 68
7 69 8 11 9 76 -10 90 -26z"/>
<path d="M2459 4953 c-9 -10 -14 -25 -11 -33 19 -58 330 -368 406 -405 60 -29
99 -26 133 11 50 55 64 191 26 256 -57 98 -237 170 -458 185 -69 4 -82 2 -96
-14z"/>
<path d="M2788 3320 c-17 -11 -28 -45 -33 -110 -6 -77 -46 -168 -127 -288
-124 -184 -357 -442 -523 -579 -139 -115 -195 -164 -195 -173 0 -45 224 42
397 153 155 101 344 276 503 468 34 41 81 96 104 124 57 69 115 134 154 172
17 18 32 41 32 52 0 25 -52 69 -164 137 -89 54 -116 62 -148 44z"/>
</g>
</svg>
